<svg width="36" height="31" viewBox="0 0 24 24" fill="none" xmlns="http://www.w3.org/2000/svg">
<path fill-rule="evenodd" clip-rule="evenodd" d="M22 11C22 15.4183 17.5228 19 12 19C10.8897 19 9.82174 18.8553 8.82388 18.5881L4 21L4.65323 16.4274C3.00629 15.0013 2 13.0947 2 11C2 6.58172 6.47715 3 12 3C17.5228 3 22 6.58172 22 11Z" fill="#000"/>
<path d="M8.82388 18.5881L9.01788 17.8636C8.84078 17.8162 8.65245 17.8352 8.48847 17.9172L8.82388 18.5881ZM4 21L3.25754 20.8939C3.21809 21.1701 3.33516 21.4453 3.56147 21.6084C3.78777 21.7715 4.0859 21.7956 4.33541 21.6708L4 21ZM4.65323 16.4274L5.39569 16.5335C5.43177 16.2809 5.33702 16.0274 5.14418 15.8604L4.65323 16.4274ZM12 19.75C17.7722 19.75 22.75 15.98 22.75 11H21.25C21.25 14.8565 17.2735 18.25 12 18.25V19.75ZM8.62989 19.3125C9.69141 19.5968 10.8246 19.75 12 19.75V18.25C10.9548 18.25 9.95208 18.1137 9.01788 17.8636L8.62989 19.3125ZM4.33541 21.6708L9.15929 19.2589L8.48847 17.9172L3.66459 20.3292L4.33541 21.6708ZM3.91077 16.3213L3.25754 20.8939L4.74246 21.1061L5.39569 16.5335L3.91077 16.3213ZM1.25 11C1.25 13.3485 2.38036 15.4514 4.16228 16.9944L5.14418 15.8604C3.63223 14.5512 2.75 12.8408 2.75 11H1.25ZM12 2.25C6.22776 2.25 1.25 6.01998 1.25 11H2.75C2.75 7.14346 6.72654 3.75 12 3.75V2.25ZM22.75 11C22.75 6.01998 17.7722 2.25 12 2.25V3.75C17.2735 3.75 21.25 7.14346 21.25 11H22.75Z" fill="#ff0"/>
<path d="M13 14H7" stroke="#f00" stroke-width="1.5" stroke-linecap="round"/>
<path d="M17 8H7" stroke="#f00" stroke-width="1.5" stroke-linecap="round"/>
<path d="M17 11H7" stroke="#f00" stroke-width="1.5" stroke-linecap="round"/>
</svg>