<svg width="34" height="28" viewBox="0 0 36 32" fill="none" xmlns="http://www.w3.org/2000/svg">
<path d="M32.9924 31.25H32.9384H32.8846H32.8311H32.7779H32.725H32.6724H32.6201H32.568H32.5162H32.4647H32.4135H32.3625H32.3119H32.2615H32.2113H32.1615H32.1119H32.0626H32.0135H31.9647H31.9162H31.8679H31.8199H31.7722H31.7247H31.6775H31.6306H31.5839H31.5374H31.4913H31.4453H31.3997H31.3542H31.3091H31.2642H31.2195H31.1751H31.1309H31.0869H31.0433H30.9998H30.9566H30.9137H30.8709H30.8284H30.7862H30.7442H30.7024H30.6609H30.6196H30.5785H30.5377H30.4971H30.4567H30.4165H30.3766H30.3369H30.2974H30.2581H30.2191H30.1803H30.1417H30.1033H30.0652H30.0272H29.9895H29.952H29.9147H29.8776H29.8407H29.8041H29.7676H29.7314H29.6953H29.6595H29.6239H29.5884H29.5532H29.5182H29.4833H29.4487H29.4143H29.38H29.346H29.3122H29.2785H29.245H29.2118H29.1787H29.1458H29.1131H29.0806H29.0482H29.0161H28.9841H28.9523H28.9207H28.8893H28.8581H28.827H28.7961H28.7654H28.7348H28.7045H28.6743H28.6442H28.6144H28.5847H28.5552H28.5258H28.4966H28.4676H28.4387H28.41H28.3815H28.3531H28.3249H28.2968H28.2689H28.2411H28.2135H28.1861H28.1588H28.1317H28.1047H28.0778H28.0511H28.0245H27.9981H27.9719H27.9457H27.9198H27.8939H27.8682H27.8426H27.8172H27.7919H27.7668H27.7417H27.7169H27.6921H27.6675H27.643H27.6186H27.5944H27.5702H27.5462H27.5224H27.4986H27.475H27.4515H27.4281H27.4048H27.3817H27.3587H27.3357H27.3129H27.2902H27.2677H27.2452H27.2228H27.2006H27.1784H27.1564H27.1344H27.1126H27.0909H27.0693H27.0477H27.0263H27.005H26.9837H26.9626H26.9415H26.9206H26.8997H26.879H26.8583H26.8377H26.8172H26.7968H26.7765H26.7562H26.7361H26.716H26.696H26.6761H26.6562H26.6365H26.6168H26.5972H26.5777H26.5582H26.5388H26.5195H26.5003H26.4811H26.462H26.4429H26.424H26.4051H26.3862H26.3674H26.3487H26.33H26.3114H26.2929H26.2744H26.256H26.2376H26.2193H26.201H26.1828H26.1646H26.1465H26.1284H26.1104H26.0924H26.0744H26.0565H26.0387H26.0209H26.0031H25.9854H25.9677H25.95H25.9324H25.9148H25.8972H25.8797H25.8622H25.8448H25.8273H25.8099H25.7925H25.7752H25.7579H25.7405H25.7233H25.706H25.6888H25.6715H25.6543H25.6371H25.6199H25.6028H25.5856H25.5685H25.5514H25.5343H25.5171H25.5H25.483H25.4659H25.4488H25.4317H25.4146H25.3975H25.3805H25.3634H25.3463H25.3292H25.3121H25.295H25.2779H25.2608H25.2437H25.2266H25.2094H25.1923H25.1751H25.1579H25.1407H25.1235H25.1063H25.089H25.0717H25.0544H25.0371H25.0198H25.0024H24.985H24.9676H24.9501H24.9327H24.9152H24.8976H24.88H24.8624H24.8448H24.8271H24.8094H24.7917H24.7739H24.756H24.7382H24.7202H24.7023H24.6843H24.6662H24.6481H24.63H24.6118H24.5935H24.5752H24.5569H24.5385H24.52H24.5015H24.4829H24.4643H24.4456H24.4268H24.408H24.3892H24.3702H24.3512H24.3321H24.313H24.2938H24.2745H24.2552H24.2358H24.2163H24.1967H24.1771H24.1573H24.1375H24.1177H24.0977H24.0777H24.0576H24.0374H24.0171H23.9967H23.9763H23.9557H23.9351H23.9144H23.8936H23.8727H23.8517H23.8306H23.8094H23.7881H23.7667H23.7453H23.7237H23.702H23.6802H23.6583H23.6364H23.6143H23.5921H23.5698H23.5473H23.5248H23.5022H23.4794H23.4566H23.4336H23.4105H23.3873H23.364H23.3405H23.317H23.2933H23.2695H23.2456H23.2215H23.1973H23.173H23.1486H23.124H23.0993H23.0745H23.0496H23.0245H22.9993H22.9739H22.9484H22.9228H22.897H22.8711H22.8451H22.8189H22.7925H22.766H22.7394H22.7127H22.6857H22.6587H22.6314H22.6041H22.5766H22.5489H22.521H22.4931H22.4649H22.4366H22.4082H22.3795H22.3508H22.3218H22.2927H22.2634H22.234H22.2044H22.1746H22.1447H22.1146H22.0843H22.0539H22.0232H21.9924H21.9615H21.9303H21.899H21.8675H21.8358H21.8039H21.7718H21.7396H21.7072H21.6746H21.6418H21.6088H21.5756H21.5423H21.5087H21.475H21.441H21.4069H21.3726H21.3381H21.3033H21.2684H21.2333H21.198H21.1624H21.1267H21.0908H21.0546H21.0183H20.9817H20.945H20.908H20.8708H20.8334H20.7958H20.758H20.7199H20.6816H20.6432H20.6045H20.5656H20.5264H20.487H20.4475H20.4077H20.3676H20.3274H20.2869H20.2461H20.2052H20.164H20.1226H20.0809H20.0391H19.9969H19.9546H19.912H19.8691H19.8261H19.7828H19.7392H19.6954H19.6513H19.607H19.5625H19.5177H19.4727H19.4274H19.3818H19.3361H19.29H19.2437H19.1971H19.1503H19.1033H19.0559H19.0083H18.9605H18.9123H18.864H18.8153H18.7664H18.7172H18.6678H18.6181H18.5681H18.5178H18.4673H18.4165H18.3654H18.314H18.2624H18.2105H18.1583H18.1058H18.053H18H17.9471H17.8946H17.8422H17.7902H17.7384H17.6869H17.6357H17.5847H17.534H17.4835H17.4334H17.3834H17.3338H17.2844H17.2352H17.1864H17.1377H17.0894H17.0413H16.9934H16.9458H16.8984H16.8513H16.8045H16.7578H16.7115H16.6654H16.6195H16.5739H16.5285H16.4833H16.4384H16.3938H16.3493H16.3051H16.2612H16.2175H16.174H16.1307H16.0877H16.0449H16.0024H15.96H15.9179H15.8761H15.8344H15.793H15.7518H15.7108H15.6701H15.6295H15.5892H15.5491H15.5093H15.4696H15.4302H15.3909H15.3519H15.3131H15.2745H15.2361H15.1979H15.16H15.1222H15.0847H15.0473H15.0101H14.9732H14.9365H14.8999H14.8636H14.8274H14.7915H14.7557H14.7202H14.6848H14.6496H14.6146H14.5799H14.5453H14.5109H14.4766H14.4426H14.4087H14.3751H14.3416H14.3083H14.2752H14.2422H14.2095H14.1769H14.1445H14.1123H14.0802H14.0483H14.0166H13.9851H13.9537H13.9225H13.8915H13.8607H13.83H13.7994H13.7691H13.7389H13.7088H13.679H13.6493H13.6197H13.5903H13.5611H13.532H13.503H13.4743H13.4456H13.4172H13.3889H13.3607H13.3327H13.3048H13.2771H13.2495H13.222H13.1947H13.1676H13.1406H13.1137H13.087H13.0604H13.0339H13.0076H12.9814H12.9553H12.9294H12.9036H12.8779H12.8524H12.827H12.8017H12.7766H12.7515H12.7266H12.7019H12.6772H12.6527H12.6283H12.604H12.5798H12.5557H12.5318H12.5079H12.4842H12.4606H12.4371H12.4137H12.3905H12.3673H12.3442H12.3213H12.2984H12.2757H12.253H12.2305H12.208H12.1857H12.1635H12.1413H12.1193H12.0973H12.0755H12.0537H12.032H12.0104H11.9889H11.9675H11.9462H11.925H11.9039H11.8828H11.8618H11.8409H11.8201H11.7994H11.7787H11.7582H11.7377H11.7173H11.6969H11.6767H11.6565H11.6363H11.6163H11.5963H11.5764H11.5566H11.5368H11.5171H11.4974H11.4778H11.4583H11.4389H11.4195H11.4001H11.3808H11.3616H11.3424H11.3233H11.3043H11.2853H11.2663H11.2474H11.2286H11.2098H11.191H11.1723H11.1536H11.135H11.1164H11.0979H11.0794H11.061H11.0425H11.0242H11.0058H10.9875H10.9693H10.951H10.9328H10.9147H10.8965H10.8784H10.8603H10.8423H10.8243H10.8063H10.7883H10.7703H10.7524H10.7345H10.7166H10.6988H10.6809H10.6631H10.6453H10.6275H10.6097H10.5919H10.5741H10.5564H10.5386H10.5209H10.5032H10.4854H10.4677H10.45H10.4323H10.4146H10.3969H10.3792H10.3615H10.3438H10.3261H10.3083H10.2906H10.2729H10.2552H10.2374H10.2197H10.2019H10.1841H10.1663H10.1485H10.1307H10.1129H10.095H10.0772H10.0593H10.0414H10.0234H10.0055H9.98751H9.96951H9.95149H9.93344H9.91536H9.89725H9.87912H9.86095H9.84275H9.82452H9.80626H9.78796H9.76962H9.75125H9.73283H9.71438H9.69589H9.67736H9.65879H9.64017H9.6215H9.6028H9.58404H9.56524H9.54639H9.52749H9.50853H9.48953H9.47047H9.45136H9.43219H9.41297H9.39369H9.37435H9.35496H9.3355H9.31598H9.2964H9.27675H9.25704H9.23727H9.21742H9.19751H9.17753H9.15748H9.13736H9.11717H9.09691H9.07657H9.05615H9.03566H9.01509H8.99444H8.97372H8.95291H8.93202H8.91105H8.88999H8.86885H8.84763H8.82631H8.80491H8.78342H8.76184H8.74017H8.71841H8.69655H8.6746H8.65255H8.63041H8.60817H8.58583H8.56339H8.54085H8.51821H8.49547H8.47262H8.44967H8.42661H8.40344H8.38017H8.35678H8.33329H8.30968H8.28597H8.26214H8.23819H8.21413H8.18995H8.16566H8.14124H8.11671H8.09205H8.06728H8.04238H8.01735H7.99221H7.96693H7.94153H7.916H7.89034H7.86455H7.83863H7.81257H7.78639H7.76007H7.73361H7.70701H7.68028H7.65341H7.6264H7.59925H7.57195H7.54451H7.51693H7.4892H7.46133H7.43331H7.40514H7.37682H7.34835H7.31973H7.29096H7.26203H7.23295H7.20371H7.17432H7.14477H7.11506H7.08518H7.05515H7.02496H6.9946H6.96408H6.93339H6.90253H6.87151H6.84032H6.80896H6.77743H6.74573H6.71385H6.6818H6.64958H6.61718H6.5846H6.55185H6.51891H6.4858H6.4525H6.41902H6.38536H6.35152H6.31748H6.28327H6.24886H6.21427H6.17948H6.14451H6.10934H6.07398H6.03842H6.00268H5.96673H5.93059H5.89425H5.85771H5.82097H5.78402H5.74688H5.70953H5.67198H5.63422H5.59626H5.55808H5.5197H5.48111H5.44231H5.40329H5.36406H5.32462H5.28497H5.24509H5.205H5.16469H5.12416H5.08342H5.04244H5.00125H4.95983H4.91819H4.87633H4.83423H4.79191H4.74936H4.70658H4.66356H4.62032H4.57684H4.53313H4.48918H4.445H4.40058H4.35592H4.31102H4.26587H4.22049H4.17487H4.129H4.08289H4.03653H3.98992H3.94306H3.89596H3.84861H3.801H3.75314H3.70503H3.65667H3.60805H3.55917H3.51003H3.46064H3.41099H3.36107H3.3109H3.26046H3.20975H3.15879H3.10755H3.05605H3.00428C2.37738 31.25 1.82112 30.9885 1.479 30.6116C1.14928 30.2484 1.0169 29.7852 1.18 29.2779C2.89478 23.9434 9.65337 19.75 18 19.75C26.3466 19.75 33.1052 23.9434 34.82 29.2779C34.9829 29.7846 34.8504 30.2475 34.5198 30.6111C34.1767 30.9884 33.6194 31.25 32.9924 31.25Z" fill="#000" stroke="#ff0" stroke-width="1.5"/>
<path d="M25.25 8.5C25.25 12.1831 22.0504 15.25 18 15.25C13.9496 15.25 10.75 12.1831 10.75 8.5C10.75 4.81694 13.9496 1.75 18 1.75C22.0504 1.75 25.25 4.81694 25.25 8.5Z" fill="#000" stroke="#ff0" stroke-width="1.5"/>
</svg>
