<svg width="17" height="15" viewBox="0 0 17 15" fill="none" xmlns="http://www.w3.org/2000/svg">
<path fill-rule="evenodd" clip-rule="evenodd" d="M8.4357 14.3146C8.34374 14.4068 8.23448 14.48 8.1142 14.5299C7.99392 14.5798 7.86498 14.6055 7.73475 14.6055C7.60453 14.6055 7.47558 14.5798 7.3553 14.5299C7.23502 14.48 7.12577 14.4068 7.0338 14.3146L1.09356 8.37437C1.00137 8.2824 0.928217 8.17315 0.878306 8.05287C0.828395 7.93259 0.802704 7.80364 0.802704 7.67342C0.802704 7.54319 0.828395 7.41425 0.878306 7.29397C0.928217 7.17369 1.00137 7.06444 1.09356 6.97247L7.03381 1.03223C7.21971 0.846328 7.47185 0.741889 7.73475 0.741889C7.99766 0.741889 8.2498 0.846328 8.4357 1.03223C8.62161 1.21813 8.72605 1.47027 8.72605 1.73318C8.72605 1.99609 8.62161 2.24823 8.4357 2.43413L3.19443 7.67342L8.4357 12.9127C8.5279 13.0047 8.60105 13.1139 8.65096 13.2342C8.70087 13.3545 8.72656 13.4834 8.72656 13.6137C8.72656 13.7439 8.70087 13.8728 8.65096 13.9931C8.60105 14.1134 8.5279 14.2226 8.4357 14.3146Z" fill="black"/>
<path fill-rule="evenodd" clip-rule="evenodd" d="M16.6445 7.67207C16.6445 7.93464 16.5402 8.18646 16.3546 8.37213C16.1689 8.5578 15.9171 8.66211 15.6545 8.66211L2.78397 8.66211C2.52139 8.66211 2.26957 8.5578 2.0839 8.37213C1.89824 8.18646 1.79393 7.93464 1.79393 7.67207C1.79393 7.40949 1.89824 7.15767 2.0839 6.972C2.26957 6.78633 2.52139 6.68203 2.78397 6.68203L15.6545 6.68203C15.9171 6.68203 16.1689 6.78634 16.3546 6.972C16.5402 7.15767 16.6445 7.40949 16.6445 7.67207Z" fill="black"/>
</svg>