<svg width="36" height="31" viewBox="0 0 26 24" fill="none" xmlns="http://www.w3.org/2000/svg">
<path d="M5.6 21H20.4C20.9523 21 21.4 20.5523 21.4 20V9.3L13.6 3.45C13.2445 3.18333 12.7556 3.18333 12.4 3.45L4.6 9.3V20C4.6 20.5523 5.04772 21 5.6 21Z" fill="#000"/>
<path d="M1 12L4.6 9.3M25 12L21.4 9.3M21.4 9.3L13.6 3.45C13.2445 3.18333 12.7556 3.18333 12.4 3.45L4.6 9.3M21.4 9.3V20C21.4 20.5523 20.9523 21 20.4 21H5.6C5.04772 21 4.6 20.5523 4.6 20V9.3" stroke="#ff0" stroke-width="1.5"/>
<rect x="9" y="13" width="8" height="8" rx="1" fill="white" stroke="#ff0" stroke-width="1.5"/>
</svg>
