<svg width="36" height="31" viewBox="0 0 24 24" fill="none" xmlns="http://www.w3.org/2000/svg">
<path fill-rule="evenodd" clip-rule="evenodd" d="M15 3L18 3V3C18.5523 3 19 3.44772 19 4V4L19 20V20C19 20.5523 18.5523 21 18 21L6 21V21C5.44772 21 5 20.5523 5 20L5 4V4C5 3.44772 5.44772 3 6 3L9 3" fill="white"/>
<path d="M15 3L18 3V3C18.5523 3 19 3.44772 19 4V4L19 20V20C19 20.5523 18.5523 21 18 21L6 21V21C5.44772 21 5 20.5523 5 20L5 4V4C5 3.44772 5.44772 3 6 3L9 3" stroke="#ff0" stroke-width="1.5" stroke-linecap="round" stroke-linejoin="round"/>
<rect x="15" y="2" width="2" height="6" rx="1" transform="rotate(90 15 2)" stroke="#f00" stroke-linecap="round" stroke-linejoin="round"/>
<path fill-rule="evenodd" clip-rule="evenodd" d="M11 9H16Z" fill="#f00"/>
<path d="M11 9H16" stroke="#f00" stroke-linecap="round"/>
<path fill-rule="evenodd" clip-rule="evenodd" d="M11 16H16Z" fill="#f00"/>
<path d="M11 16H16" stroke="#f00" stroke-linecap="round"/>
<path fill-rule="evenodd" clip-rule="evenodd" d="M11 12.5H16Z" fill="#f00"/>
<path d="M11 12.5H16" stroke="#f00" stroke-linecap="round"/>
<path fill-rule="evenodd" clip-rule="evenodd" d="M8.5 9.5C8.77614 9.5 9 9.27614 9 9C9 8.72386 8.77614 8.5 8.5 8.5C8.22386 8.5 8 8.72386 8 9C8 9.27614 8.22386 9.5 8.5 9.5Z" fill="#f00" stroke="#f00"/>
<path fill-rule="evenodd" clip-rule="evenodd" d="M8.5 13C8.77614 13 9 12.7761 9 12.5C9 12.2239 8.77614 12 8.5 12C8.22386 12 8 12.2239 8 12.5C8 12.7761 8.22386 13 8.5 13Z" fill="#f00" stroke="#f00"/>
<path fill-rule="evenodd" clip-rule="evenodd" d="M8.5 16.5C8.77614 16.5 9 16.2761 9 16C9 15.7239 8.77614 15.5 8.5 15.5C8.22386 15.5 8 15.7239 8 16C8 16.2761 8.22386 16.5 8.5 16.5Z" fill="#000" stroke="#f00"/>
</svg>
