<svg width="30" height="30" viewBox="0 0 24 24" fill="none" xmlns="http://www.w3.org/2000/svg">
<path fill-rule="evenodd" clip-rule="evenodd" d="M19.655 12.6643L21.8542 15.9666H21.8541C21.9538 16.1163 22.004 16.2846 21.9997 16.4548C21.9955 16.6251 21.9369 16.7915 21.8298 16.9378C21.7227 17.0841 21.5707 17.2053 21.3886 17.2894C21.2066 17.3736 21.0009 17.4178 20.7915 17.4179H16.4134C16.4253 17.5258 16.4318 17.6349 16.4318 17.7455C16.4318 18.7015 15.9649 19.6183 15.1338 20.2943C14.3027 20.9702 13.1755 21.35 12.0001 21.35C10.8247 21.35 9.69748 20.9702 8.86636 20.2943C8.03525 19.6183 7.56833 18.7015 7.56833 17.7455C7.56844 17.6361 7.5746 17.5268 7.58682 17.4179H3.20869C2.9993 17.4179 2.79351 17.3736 2.61146 17.2895C2.42942 17.2053 2.27737 17.0842 2.17023 16.9379C2.06308 16.7915 2.00451 16.6251 2.00025 16.4548C1.99599 16.2846 2.04619 16.1163 2.14593 15.9666L4.34529 12.6643V9.22589C4.34529 5.79293 7.77924 3 12.0001 3C16.221 3 19.655 5.79293 19.655 9.22589V12.6643ZM14.5866 18.6617C14.7411 18.3726 14.8207 18.0608 14.8203 17.7455C14.8202 17.6359 14.8104 17.5264 14.791 17.4179H9.20919C9.15351 17.7298 9.17748 18.0477 9.2796 18.3518C9.38173 18.6559 9.55981 18.9396 9.80275 19.1852C10.0457 19.4308 10.3483 19.633 10.6916 19.7793C11.0349 19.9256 11.4116 20.0127 11.7982 20.0353C12.1847 20.0578 12.5729 20.0154 12.9384 19.9105C13.3039 19.8056 13.6388 19.6406 13.9224 19.4258C14.206 19.2109 14.4321 18.9508 14.5866 18.6617Z" fill="white" stroke="white" stroke-width="1.5"/>
</svg>
